<svg xmlns="http://www.w3.org/2000/svg" width="35.929" height="36" viewBox="0 0 35.929 36">
  <g id="Aviator" transform="translate(0)">
    <path id="Path_1" data-name="Path 1" d="M15.143,39.275a1.226,1.226,0,0,1-.857-.349l-3.364-3.364-1.238.825a1.2,1.2,0,0,1-1.523-.159L6.383,34.451A1.245,1.245,0,0,1,6.225,32.9l.825-1.206-3.3-3.3a1.226,1.226,0,0,1,0-1.714l1.746-1.746a1.161,1.161,0,0,1,1.492-.159l3.4,2.127,1.777-2.6a.382.382,0,0,1,.159-.159l2.6-2.6L13.08,19.692c-.063-.063-.127-.159-.19-.222L6.066,8.2a1.207,1.207,0,0,1,.19-1.492L9.3,3.632a1.207,1.207,0,0,1,1.714,0L21.9,14.519l3.809-3.809a1.207,1.207,0,0,1,1.714,0l4.6,4.6a1.207,1.207,0,0,1,0,1.714L28.22,20.835l10.76,10.76a1.226,1.226,0,0,1,0,1.714L35.71,36.577a1.2,1.2,0,0,1-1.523.159l-10.95-6.983c-.063-.063-.159-.1-.19-.159l-1.777-1.777L18.6,30.483c-.063.063-.127.1-.19.159l-2.539,1.682,2.158,3.206a1.2,1.2,0,0,1-.159,1.523L16,38.926A1.226,1.226,0,0,1,15.143,39.275Zm-4.126-5.808a1.226,1.226,0,0,1,.857.349l3.269,3.269.984-.984-2.253-3.333a1.2,1.2,0,0,1-.19-.92,1.179,1.179,0,0,1,.508-.762l3.047-2.031,3.11-3.11a1.268,1.268,0,0,1,1.714,0l2.222,2.222,10.442,6.665,2.412-2.412L26.379,21.66a1.226,1.226,0,0,1,0-1.714l3.809-3.777-3.618-3.618-3.809,3.809a1.268,1.268,0,0,1-1.714,0L10.16,5.473,7.939,7.695l6.538,10.7,2.253,2.253a1.207,1.207,0,0,1,0,1.714l-3.015,3.047-2.127,3.11a1.214,1.214,0,0,1-1.65.349l-3.491-2.19-.889.889L8.8,30.8a1.245,1.245,0,0,1,.159,1.555l-.825,1.206.952.952,1.238-.825A1.142,1.142,0,0,1,11.017,33.467Zm26.629-.54Zm0-.984Zm-20.313-2.92ZM5.082,27.055Zm9.458-8.633Z" transform="translate(-3.4 -3.275)" fill="#fff"/>
    <path id="Path_2" data-name="Path 2" d="M80.718,19.535a20.47,20.47,0,0,1-2.435-2.657c-.127.032-.474.854-.474.854L76.417,16.31A3.6,3.6,0,0,0,77.3,15.9a17.039,17.039,0,0,1-2.657-2.435c-1.455-1.423-3-3.447-2.72-3.7.285-.285,4.111,3.1,3.669,2.688a19.481,19.481,0,0,1,2.562,3.036.438.438,0,0,1,.443.095.454.454,0,0,1,.095.443,20.361,20.361,0,0,1,3.036,2.562c1.392,1.392,2.941,3.384,2.688,3.669C84.1,22.477,82.11,20.927,80.718,19.535Z" transform="translate(-50.103 -7.7)" fill="#fff"/>
  </g>
</svg>
