<!-- Generated by IcoMoon.io -->
<svg version="1.1" xmlns="http://www.w3.org/2000/svg" width="32" height="32" viewBox="0 0 32 32" fill="#fff">
<title>Iconos-app-codere-Expand_icon-blackjack</title>
<path d="M15.413 21.173c0 0 0.907-0.133 1.867-0.667 1.067-0.587 1.627-1.307 1.627-1.307s0.187 0.907 0.853 1.92c0.587 0.88 1.36 1.44 1.36 1.44l-5.707-1.387z"></path>
<path d="M24.587 18.213c-0.347 1.387-1.573 2.32-2.96 2.347-0.24 0-0.507-0.027-0.747-0.080-0.853-0.213-1.52-0.747-1.947-1.44-0.667 0.427-1.52 0.613-2.373 0.4-1.653-0.4-2.667-2.053-2.267-3.707 0.48-1.973 2.427-2.080 3.893-2.827 1.12-0.587 2-1.253 2.4-1.52 0.133-0.080 0.213-0.133 0.24-0.133 0.107 0.053 0.613 1.333 1.573 2.667s2.64 2.32 2.187 4.293z"></path>
<path d="M31.227 3.947l-16.293-3.92c-0.053-0.027-0.133-0.027-0.213-0.027-0.4 0-0.747 0.267-0.827 0.667l-0.32 1.307-0.16 0.693-9.947-0.56c-0.16 0-0.293 0-0.427 0.027-0.853 0.16-1.467 0.853-1.52 1.733l-1.413 24.853c-0.053 1.013 0.72 1.893 1.76 1.973l15.467 0.853c0.107 0 0.213 0 0.32-0.027 0.533-0.107 0.987-0.427 1.253-0.88l5.52 1.333c0.080 0.027 0.133 0.027 0.213 0.027 0.4 0 0.747-0.267 0.827-0.667l6.373-26.347c0.133-0.453-0.16-0.933-0.613-1.040v0zM2.267 28.56l1.36-24.293 9.28 0.533-2.133 8.8c-0.133 0.080-0.267 0.187-0.4 0.293-0.453-0.507-1.093-0.853-1.813-0.907-0.213 0-0.427 0-0.64 0.053-1.147 0.213-2.027 1.173-2.080 2.4-0.107 1.707 1.44 2.267 2.453 3.227 0.4 0.373 0.72 0.773 0.987 1.093l-1.76 7.28c-0.107 0.453 0.16 0.933 0.64 1.040l4.613 1.12-10.507-0.64zM23.733 29.6l-13.813-3.333 5.733-23.813 0.027-0.053 13.813 3.333-5.76 23.867z"></path>
</svg>
