<?xml version="1.0" encoding="utf-8"?>
<!-- Generator: Adobe Illustrator 25.2.3, SVG Export Plug-In . SVG Version: 6.00 Build 0)  -->
<svg version="1.1" id="Layer_1" xmlns="http://www.w3.org/2000/svg" xmlns:xlink="http://www.w3.org/1999/xlink" x="0px" y="0px"
	 viewBox="0 0 202 142" style="enable-background:new 0 0 202 142;" xml:space="preserve">

<path  d="M197.27,39.38c-2.61,0-4.73-2.12-4.73-4.73c0-2.61,2.12-4.73,4.73-4.73s4.73,2.12,4.73,4.73
	C202,37.26,199.88,39.38,197.27,39.38z M184.64,44.69c-2.61,0-4.73-2.12-4.73-4.73c0-2.61,2.12-4.73,4.73-4.73
	c2.61,0,4.73,2.12,4.73,4.73C189.37,42.57,187.26,44.69,184.64,44.69z M173.61,52.16c-2.61,0-4.73-2.12-4.73-4.73
	c0-2.61,2.12-4.73,4.73-4.73c2.61,0,4.73,2.12,4.73,4.73C178.34,50.04,176.22,52.16,173.61,52.16z M164.14,61.59
	c-2.61,0-4.73-2.11-4.73-4.72c0-2.61,2.12-4.72,4.73-4.72s4.73,2.11,4.73,4.72C168.87,59.48,166.76,61.59,164.14,61.59z
	 M142.77,87.82c0.37,26.56-0.74,54.18-0.74,54.18h-9.47c0,0,0.65-16.3,0.79-35.9c-9.08,20.21-11.83,35.9-11.83,35.9h-9.47
	c0,0,1.3-30.39-4.73-58.33c-1.51-7-3.79-14.41-6.31-21.53c-2.52,7.12-4.8,14.53-6.31,21.53C88.65,111.61,89.95,142,89.95,142h-9.47
	c0,0-2.75-15.69-11.83-35.89c0.14,19.6,0.79,35.89,0.79,35.89h-9.47c0,0-1.11-27.62-0.74-54.18c-10-17.07-16.62-21.49-16.62-21.49
	l6.89-5.73c0,0,3.92,2.18,10.18,9.91c0.7-19.29,1.87-36.98,1.87-36.98h9.47c0,0-1.79,26.62-2.25,50.07c1.73,2.84,3.53,6,5.41,9.53
	c3.1,5.85,5.56,11.89,7.53,17.63c0.71-8.38,1.8-17.72,3.52-27.09c2.09-11.47,6.36-23.97,10.7-34.81
	c-5.54-13.52-10.7-23.64-10.7-23.64l7.89-4.73c0,0,3.51,6.6,7.89,16.39c4.39-9.79,7.89-16.39,7.89-16.39l7.89,4.73
	c0,0-5.16,10.12-10.7,23.64c4.34,10.84,8.6,23.35,10.7,34.81c1.67,9.13,2.76,18.25,3.46,26.47c1.97-5.58,4.44-11.4,7.58-17.01
	c1.88-3.36,3.69-6.39,5.41-9.13c-0.45-23.54-2.26-50.47-2.26-50.47h9.47c0,0,1.2,18.03,1.89,37.53
	c6.29-7.89,10.16-10.46,10.16-10.46l6.89,5.73C159.39,66.33,152.77,70.76,142.77,87.82z M136.52,30.37c-3.05,0-5.52-2.47-5.52-5.52
	c0-3.05,2.47-5.52,5.52-5.52c3.05,0,5.52,2.47,5.52,5.52C142.03,27.91,139.56,30.37,136.52,30.37z M137.3,14.62
	c-2.61,0-4.73-2.12-4.73-4.73c0-2.61,2.12-4.73,4.73-4.73c2.61,0,4.73,2.12,4.73,4.73C142.03,12.51,139.91,14.62,137.3,14.62z
	 M127.05,7.87c-2.18,0-3.95-1.76-3.95-3.94c0-2.17,1.77-3.94,3.95-3.94c2.18,0,3.95,1.76,3.95,3.94
	C131,6.11,129.23,7.87,127.05,7.87z M119,20c-3.31,0-6-2.69-6-6c0-3.31,2.69-6,6-6c3.31,0,6,2.69,6,6C125,17.31,122.31,20,119,20z
	 M83,20c-3.31,0-6-2.69-6-6c0-3.31,2.69-6,6-6c3.31,0,6,2.69,6,6C89,17.31,86.31,20,83,20z M74.97,7.87c-2.17,0-3.94-1.76-3.94-3.94
	c0-2.17,1.76-3.94,3.94-3.94s3.94,1.76,3.94,3.94C78.91,6.11,77.14,7.87,74.97,7.87z M65.5,19.34c3.06,0,5.53,2.47,5.53,5.52
	c0,3.05-2.48,5.52-5.53,5.52c-3.05,0-5.53-2.47-5.53-5.52C59.97,21.81,62.44,19.34,65.5,19.34z M64.7,14.62
	c-2.61,0-4.73-2.12-4.73-4.73c0-2.61,2.12-4.73,4.73-4.73c2.61,0,4.73,2.12,4.73,4.73C69.44,12.51,67.32,14.62,64.7,14.62z
	 M37.89,61.59c-2.61,0-4.73-2.11-4.73-4.72c0-2.61,2.12-4.72,4.73-4.72c2.61,0,4.73,2.11,4.73,4.72
	C42.62,59.48,40.51,61.59,37.89,61.59z M28.42,52.16c-2.61,0-4.73-2.12-4.73-4.73c0-2.61,2.12-4.73,4.73-4.73
	c2.61,0,4.73,2.12,4.73,4.73C33.16,50.04,31.04,52.16,28.42,52.16z M17.36,44.69c-2.61,0-4.73-2.12-4.73-4.73
	c0-2.61,2.12-4.73,4.73-4.73c2.61,0,4.73,2.12,4.73,4.73C22.09,42.57,19.97,44.69,17.36,44.69z M4.73,39.38
	C2.12,39.38,0,37.26,0,34.64c0-2.61,2.12-4.73,4.73-4.73s4.73,2.12,4.73,4.73C9.47,37.26,7.35,39.38,4.73,39.38z" fill="#fff"/>
</svg>
