<svg xmlns="http://www.w3.org/2000/svg" width="34.985" height="36" viewBox="0 0 34.985 36">
    <path id="Iconos-app-codere-Expand_icon-la-copa"
          d="M36.352,3.505a1.7,1.7,0,0,0-1.227-.526H31.738c0-.2.021-.391.027-.6a2,2,0,0,0-2-2.057H8.919a2,2,0,0,0-2,2.07c0,.2.018.394.027.6H3.523a1.7,1.7,0,0,0-1.7,1.778,14.478,14.478,0,0,0,3.309,9.048A9.987,9.987,0,0,0,11.5,17.21a11.99,11.99,0,0,0,4.326,3.667v2.608a1.884,1.884,0,0,0,.051.436H14.511a2,2,0,0,0-2,2v2.731h-.83a.855.855,0,0,0-.932.749v6.169a.857.857,0,0,0,.932.749H27.021a.857.857,0,0,0,.932-.749V29.4a.855.855,0,0,0-.932-.749H26.17V25.921a2,2,0,0,0-2-2H22.807a1.883,1.883,0,0,0,.051-.436V20.877A12,12,0,0,0,27.181,17.2,9.987,9.987,0,0,0,33.5,13.8a14.457,14.457,0,0,0,3.309-9.048,1.7,1.7,0,0,0-.454-1.251ZM25.532,33.914H13.154V31.059H25.532Zm-1.769-5.306H14.923v-2.28h8.841Zm-17.272-16A12.573,12.573,0,0,1,3.634,4.79H7.09A28.2,28.2,0,0,0,9.9,14.662c.072.138.144.271.22.406a8.386,8.386,0,0,1-3.631-2.458Zm14.76,6.317-.8.283v3.874H18.235V19.222l-.8-.283c-2.042-.725-3.962-2.641-5.4-5.4A26.933,26.933,0,0,1,9.328,2.714H29.344a26.548,26.548,0,0,1-2.707,10.829c-1.423,2.755-3.339,4.671-5.384,5.4Zm10.9-6.317a8.422,8.422,0,0,1-3.583,2.433c.072-.129.141-.256.211-.388A28.064,28.064,0,0,0,31.6,4.784h3.417A12.641,12.641,0,0,1,32.156,12.611Z"
          transform="translate(-1.824 -0.32)" fill="#fff"/>
</svg>
