<?xml version="1.0" encoding="utf-8"?>
<!-- Generator: Adobe Illustrator 26.3.1, SVG Export Plug-In . SVG Version: 6.00 Build 0)  -->
<svg version="1.1" xmlns="http://www.w3.org/2000/svg" xmlns:xlink="http://www.w3.org/1999/xlink" x="0px" y="0px"
	 viewBox="0 0 386.5 124" style="enable-background:new 0 0 386.5 124;" xml:space="preserve">
<style type="text/css">
	.st0{fill:#FFFFFF;}
	.st1{fill:#E4C80C;}
	.st2{fill-rule:evenodd;clip-rule:evenodd;fill:#FFFFFF;}
</style>
<g id="jugarBIEN">
	<g>
		<path class="st0" d="M0,105.4h1.4c4.9,0,8.3-1,10.1-2.9c1.8-1.9,2.7-6.1,2.7-12.5V45.5l5.4-0.6v45c0,7.7-1.3,13-3.8,15.9
			c-2.5,2.9-7,4.4-13.3,4.4H1.6L0,105.4z"/>
		<path class="st0" d="M60.2,85.4c-2,2.9-4.3,5.1-6.8,6.5c-2.6,1.4-5.4,2.2-8.6,2.2c-5.3,0-9.3-1.6-12.3-4.8
			c-2.9-3.2-4.4-7.7-4.4-13.5V45.5l5.3-0.6v28.3c0,5.5,1,9.6,3.1,12.3c2.1,2.7,5.2,4.1,9.4,4.1c3.8,0,7.2-1.4,10-4.2
			c2.8-2.8,4.2-6.3,4.2-10.3V45.5l5.3-0.6v48l-5.3,0.6V85.4z"/>
		<path class="st0" d="M101.9,76.5c3.5,1.6,6.3,3.8,8.2,6.6c1.9,2.8,2.9,6,2.9,9.5c0,5.2-2,9.5-6.1,13c-4.1,3.5-9.2,5.2-15.4,5.2
			c-4.4,0-8.5-1-12.1-3c-3.7-2-6.7-4.9-9.3-8.7l4.8-3.1c2,3.1,4.4,5.5,7.2,7.1c2.8,1.6,5.9,2.4,9.3,2.4c4.5,0,8.2-1.3,11.4-3.8
			c3.1-2.5,4.7-5.6,4.7-9.2c0-3.8-1.6-7.1-4.7-9.8c-3.1-2.7-6.9-4-11.4-4c-1.8,0-3.7,0.2-5.7,0.7c-2,0.5-4.1,1.3-6.3,2.3l2.3-6
			c-2.9-1.6-5.1-3.7-6.6-6.2c-1.5-2.5-2.3-5.2-2.3-8.2c0-4.8,1.9-8.8,5.6-12c3.7-3.2,8.3-4.9,13.8-4.9c0.8,0,1.7,0,2.7,0.1
			c1,0.1,2,0.2,3.1,0.3c0.2,0,0.5,0.1,0.7,0.1c0.2,0,0.6,0,1.2,0c1.7,0,3.6-0.2,5.8-0.5c2.1-0.4,5.1-1,8.8-1.9l-1.2,3.7
			c-0.3,1-0.8,1.7-1.3,2.1c-0.5,0.4-1.2,0.5-2.1,0.5c-0.5,0-1.9-0.2-4.3-0.5c-0.5-0.1-0.9-0.1-1.1-0.1c2.6,1.5,4.6,3.3,5.9,5.6
			c1.3,2.2,2,4.8,2,7.7c0,3.3-0.9,6.3-2.7,8.9C107.8,72.9,105.2,75,101.9,76.5z M78.2,61.4c0,3.5,1.4,6.4,4.1,8.8
			c2.7,2.4,6.1,3.6,10.2,3.6s7.5-1.2,10.2-3.6c2.7-2.4,4.1-5.3,4.1-8.9c0-3.3-1.4-6.1-4.1-8.4c-2.8-2.3-6.1-3.5-10.1-3.5
			c-4,0-7.4,1.2-10.2,3.5C79.6,55.3,78.2,58.1,78.2,61.4z"/>
		<path class="st0" d="M148.6,88.1c-1.7,1.9-3.6,3.4-5.8,4.4c-2.1,1-4.5,1.5-7,1.5c-4.8,0-8.9-1.7-12.3-5.1
			c-3.4-3.4-5.1-7.5-5.1-12.3c0-4.8,1.7-8.9,5.1-12.3c3.4-3.4,7.5-5.1,12.3-5.1c2.4,0,4.7,0.5,6.9,1.4c2.2,0.9,4.1,2.3,5.8,4.1v-6
			c0-3.3-0.8-5.7-2.5-7.3c-1.7-1.6-4.2-2.3-7.7-2.3c-2,0-4.3,0.3-6.6,0.9c-2.4,0.6-5.1,1.5-8.2,2.8l2.1-6.2c2.3-0.8,4.6-1.4,6.8-1.8
			c2.2-0.4,4.4-0.6,6.4-0.6c5.2,0,8.9,1.2,11.3,3.6c2.4,2.4,3.6,6.2,3.6,11.4v33.5l-5.3,1.2V88.1z M124,76.6c0,3.5,1.2,6.4,3.5,8.7
			c2.4,2.3,5.4,3.5,9,3.5c3.6,0,6.5-1.1,8.7-3.4c2.2-2.3,3.3-5.2,3.3-8.9c0-3.6-1.1-6.6-3.3-8.8c-2.2-2.3-5.1-3.4-8.7-3.4
			c-3.7,0-6.7,1.2-9.1,3.5C125.2,70.2,124,73.1,124,76.6z"/>
		<path class="st0" d="M163.6,93.5v-48l5.3-0.6v10.3c1.9-3.7,4.3-6.5,7-8.3c2.8-1.9,6-2.8,9.6-2.8h1.3l-2.2,5.2
			c-5.4,0.5-9.4,2.9-11.9,7.1c-2.6,4.2-3.9,10.4-3.9,18.7v17.9L163.6,93.5z"/>
		<path class="st0" d="M193.3,93.8v-50h23.2c4.5,0,8,1.2,10.6,3.5c2.6,2.3,3.9,5.5,3.9,9.4c0,2.4-0.5,4.5-1.6,6.2
			c-1.1,1.8-2.8,3.3-5,4.7c2.6,1.2,4.6,2.8,5.9,4.7c1.3,2,2,4.4,2,7.2c0,4.2-1.5,7.6-4.4,10.2c-2.9,2.6-6.8,3.9-11.7,3.9H193.3z
			 M208.8,72.8v9.4h2.8c1.5,0,2.6-0.4,3.4-1.2c0.8-0.8,1.2-2,1.2-3.5c0-1.5-0.4-2.6-1.2-3.5c-0.8-0.8-2-1.3-3.4-1.3H208.8z
			 M208.9,55.1v8.4h2.4c1.3,0,2.3-0.4,3.1-1.2c0.8-0.8,1.2-1.8,1.2-3c0-1.3-0.4-2.3-1.1-3.1c-0.8-0.8-1.8-1.1-3.2-1.1H208.9z"/>
		<path class="st0" d="M237.2,94.8V44.6l15.8-1.1v49.9L237.2,94.8z"/>
		<path class="st0" d="M260,93.8v-50h27.7l3,13.3h-14.8v4.6h9.4v12.9h-9.4v5h15.8l-3.1,14.1H260z"/>
	</g>
</g>
<g id="Forma_1_copia_2_xA0_Imagen">
	<path class="st0" d="M326.4,67.2L326.4,67.2L326.4,67.2c-7.4-5.7-12.6-13.9-14.6-23.4h-15.3v50.8l15.3-1.1V69.8l14.5,24h15.3V74.5
		C336,73.2,330.8,70.7,326.4,67.2z"/>
	<circle class="st1" cx="350.5" cy="36" r="36"/>
</g>
<g id="Forma_2_00000123431298198073277180000002853570787403088830_">
	<g id="Forma_2">
		<g>
			<path class="st2" d="M329.3,41.5c-1.1,0-2,0.9-2,2c0,1.1,0.9,2,2,2c1.1,0,2-0.9,2-2C331.3,42.4,330.4,41.5,329.3,41.5z"/>
		</g>
	</g>
</g>
<g id="es">
	<g>
		<path class="st0" d="M350.4,43.2c-1.2,0.9-2.4,1.5-3.5,1.9c-1.2,0.4-2.4,0.6-3.6,0.6c-2.7,0-5-0.9-6.8-2.7c-1.8-1.8-2.7-4-2.7-6.7
			c0-2.7,0.9-4.9,2.7-6.7c1.8-1.8,4.1-2.7,6.8-2.7c1.7,0,3.2,0.4,4.5,1.1c1.3,0.7,2.3,1.8,3,3.2l-14.1,8.3c0.7,1.3,1.6,2.3,2.7,3
			c1.1,0.7,2.4,1.1,3.9,1.1c1.1,0,2.3-0.2,3.4-0.7c1.1-0.5,2.4-1.3,3.7-2.3V43.2z M335.9,37.9l11.8-7c-0.5-0.6-1.1-1.1-1.9-1.4
			c-0.8-0.3-1.6-0.5-2.6-0.5c-2.1,0-3.8,0.7-5.2,2.1c-1.4,1.4-2.1,3.2-2.1,5.2c0,0.3,0,0.6,0,0.9C335.9,37.4,335.9,37.7,335.9,37.9z
			"/>
		<path class="st0" d="M353.6,43.1l1.5-1.4c0.6,0.7,1.4,1.3,2.1,1.7c0.8,0.4,1.6,0.6,2.5,0.6c1.1,0,2-0.3,2.7-0.9
			c0.7-0.6,1.1-1.4,1.1-2.4c0-0.9-0.3-1.6-0.8-2.1c-0.5-0.5-1.4-0.9-2.8-1.2c-2.2-0.6-3.8-1.2-4.6-2c-0.8-0.8-1.2-1.8-1.2-3.2
			c0-1.4,0.6-2.6,1.7-3.6c1.1-1,2.5-1.5,4.2-1.5c1,0,2,0.2,2.9,0.5c0.9,0.3,1.7,0.8,2.5,1.5l-1.3,1.7c-0.7-0.6-1.4-1-2.1-1.3
			c-0.7-0.3-1.4-0.5-2.1-0.5c-1.1,0-2,0.3-2.7,0.9c-0.7,0.6-1,1.3-1,2.3c0,1.4,1.2,2.4,3.7,3c0.5,0.1,0.9,0.2,1.2,0.3
			c1.5,0.4,2.7,1.1,3.4,1.9c0.8,0.8,1.1,1.9,1.1,3.1c0,1.6-0.6,3-1.7,4c-1.2,1.1-2.6,1.6-4.4,1.6c-1.2,0-2.4-0.2-3.4-0.7
			C355.2,44.7,354.4,44,353.6,43.1z"/>
	</g>
</g>
<g id="jugar_con_responsabilidad">
	<g>
		<path class="st1" d="M122.2,107c-0.3,0.1-0.6,0.2-0.8,0.2c-0.1,0-0.4-0.1-0.7-0.4c-0.3-0.3-0.5-0.5-0.5-0.6c0-0.1,0.1-0.2,0.2-0.4
			c0.1-0.2,0.2-0.3,0.3-0.3c0.3,0,0.5,0,0.8,0.1c0.4,0.1,0.6,0.3,0.6,0.5V107z M122.9,123.3c0,0.2-0.1,0.4-0.3,0.5
			c-0.2,0.1-0.4,0.2-0.6,0.2c-0.2,0-0.4-0.1-0.7-0.3c-0.3-0.2-0.4-0.4-0.5-0.6c-0.3-0.8-0.4-2-0.4-3.4v-3.5c0-2.3,0.3-3.9,1-4.9h0.1
			c0.3,0,0.6,0.1,0.9,0.2c0.4,0.2,0.5,0.4,0.5,0.7c0,0.3-0.1,0.8-0.3,1.5c-0.2,0.7-0.3,1.2-0.3,1.6c0,2,0,3.4,0.1,4.3
			c0,0.4,0.1,1,0.3,1.8C122.8,122.3,122.9,122.9,122.9,123.3z"/>
		<path class="st1" d="M134.4,112.4c0,1.5-0.4,2.8-1.1,4c-0.9,1.4-2,2.1-3.4,2.1h-1.4c-0.2,0-0.6-0.2-1.3-0.7
			c-1.6-1-2.4-2.9-2.4-5.5c0-1.1,0.6-1.6,1.9-1.6c0.1,0,0.2,0.1,0.3,0.3c0.1,0.2,0.2,0.3,0.2,0.4c0,0.2,0,0.4-0.1,0.8
			c-0.1,0.3-0.1,0.6-0.1,0.8c0,0.8,0.2,1.6,0.6,2.5c0.5,1.1,1.1,1.7,1.7,1.7c0.1,0,0.1,0,0.1,0.1c0,0,0.1,0.1,0.1,0.1
			c0.4,0,0.9-0.4,1.5-1.2c0.5-0.7,0.9-1.3,1-1.8c0.2-0.8,0.3-1.5,0.3-2.3c0-0.2,0-0.4-0.1-0.7c-0.1-0.2-0.1-0.5-0.2-0.7
			c0.4-0.3,0.6-0.4,0.8-0.4c0,0,0.1,0,0.1,0c0,0,0.1,0,0.1,0l0-0.1l0.1,0C134,110,134.4,110.8,134.4,112.4z"/>
		<path class="st1" d="M144.3,121.4c0,1-0.3,1.6-0.8,2c-0.4,0.3-1.2,0.4-2.2,0.4c-0.3,0-1.1-0.1-2.6-0.4v-0.7c0.1,0,0.7,0,1.8,0
			c0.2,0,0.5-0.1,1-0.2c0.5-0.1,0.7-0.3,0.8-0.4c0.1-0.2,0.1-0.6,0.1-1.1c-0.2-0.4-0.3-1-0.4-1.9c-0.1-0.9-0.3-1.5-0.5-1.9
			c-0.6,0.7-1.3,1-2.3,1c-0.7,0-1.5-0.3-2.1-0.9c-0.7-0.6-1-1.3-1-2c0-0.7,0.2-1.5,0.5-2.5c0.4-1,0.8-1.7,1.4-2
			c0.3-0.2,1-0.3,2.1-0.3c0.2,0,0.6,0.1,1.1,0.4c0.5,0.2,0.9,0.4,1,0.6c0.3,0.4,0.5,1,0.5,1.7c0,0.1,0,0.3,0,0.4
			c0.3,0.2,0.5,0.5,0.6,0.9c0,0.2,0.1,0.5,0.1,1.2c0,0.4,0,1,0.1,1.8c0,0.4,0.1,0.9,0.3,1.5c0.2,0.7,0.3,1.2,0.3,1.5
			c0,0.2,0,0.4,0.1,0.4C144.2,121.2,144.2,121.3,144.3,121.4z M141.1,114.9c0-0.1,0-0.2-0.1-0.4c-0.1-0.2-0.1-0.3-0.1-0.4
			c0-0.1,0-0.3,0.1-0.5c0.1-0.2,0.1-0.4,0.1-0.5c0-0.2-0.2-0.5-0.5-0.7c-0.3-0.2-0.6-0.3-0.9-0.3c-0.5,0-1,0.5-1.5,1.4
			c-0.4,0.8-0.6,1.5-0.6,2.1c0,0.3,0.2,0.5,0.5,0.8c0.3,0.3,0.6,0.4,0.9,0.4c0.4,0,0.8-0.2,1.4-0.7
			C140.8,115.7,141.1,115.3,141.1,114.9z"/>
		<path class="st1" d="M156.1,117.9c0,0.7-0.5,1.1-1.4,1.1c-0.1,0-0.1,0-0.3-0.1l-0.2-0.1c-0.6-0.4-1-0.7-1.1-0.8l-0.7-1
			c-1,0.6-1.5,0.9-1.6,1c-0.6,0.3-1.2,0.5-1.8,0.5c-0.1,0-0.2,0-0.3-0.1c-0.1-0.1-0.2-0.1-0.3-0.1c0,0-0.1,0-0.2,0
			c-0.1,0-0.2,0-0.2,0c-0.8,0-1.5-0.4-2.1-1.2c-0.5-0.7-0.8-1.5-0.8-2.4c0-2.2,0.9-3.5,2.8-3.8c0.4-0.3,1-0.4,2-0.4
			c0.7,0,1.4,0.1,2,0.3c0.9,0.3,1.4,0.7,1.5,1.2c0.1,0.3,0.1,0.6,0.2,1.1c0,0.5,0.1,0.9,0.1,1.2c0.1,0.5,0.2,1,0.5,1.7
			c0.3,0.9,0.6,1.4,0.8,1.4c0,0,0.1,0,0.1,0c0.1,0,0.1,0,0.1,0c0.1,0,0.3,0.1,0.4,0.3C156,117.6,156.1,117.8,156.1,117.9z
			 M151.6,112.2c0,0,0-0.1-0.1-0.2c-0.6-0.1-1.3-0.2-2.2-0.2c-0.4,0-0.9,0.3-1.4,0.8c-0.5,0.5-0.7,1-0.7,1.5c0,2,0.6,3,1.9,3
			c0.2,0,0.5-0.1,0.9-0.4c0.4-0.2,0.6-0.4,0.8-0.6c0.4-0.4,0.6-1,0.6-1.7c0-0.3,0-0.9,0-1.9C151.6,112.3,151.6,112.3,151.6,112.2z"
			/>
		<path class="st1" d="M165.7,110.4c-0.9,0.1-1.9,0.5-2.8,1.3c-0.8,0.7-1.5,1.5-2,2.4c-0.2,0.3-0.3,0.7-0.4,1.2
			c-0.1,0.7-0.2,1.1-0.3,1.3c-0.1,0.5-0.2,0.8-0.2,1c-0.1,0.4-0.3,0.7-0.7,0.7c-0.3,0-0.6-0.1-1-0.4c-0.4-0.2-0.5-0.5-0.5-0.8
			c0-0.1,0-0.7,0-1.8c0-0.9,0-1.5,0-1.7c0-0.1,0-0.5,0.1-1.1c0-0.4,0.2-0.6,0.6-0.6c0.2,0,0.4,0.1,0.6,0.2c0.3,0.1,0.4,0.2,0.5,0.3
			c0.4-0.4,0.8-0.9,1.4-1.4l0.2,0.1c0-0.3,0.1-0.4,0.3-0.6c0,0,0.2-0.2,0.6-0.4c0.5-0.3,0.7-0.4,0.9-0.4c0,0,0.1,0,0.1,0
			c0,0,0,0,0.1,0c0.1,0,0.1,0,0.2-0.1c0.1-0.1,0.2-0.1,0.2-0.1c0,0,0.1,0,0.1,0.1c0,0,0,0.1,0.1,0.1l0.1,0l0-0.1l0.1,0
			c0.7,0,1.2,0.1,1.4,0.2c0.1,0.1,0.2,0.2,0.3,0.3C165.5,110.1,165.6,110.3,165.7,110.4z"/>
		<path class="st1" d="M178.2,111c0,0.4-0.2,0.7-0.7,0.7c-0.2,0-0.6-0.1-1-0.2c-0.4-0.1-0.8-0.2-1-0.2c-1.2,0-1.9,0.5-2.3,1.5
			c-0.3,0.8-0.5,1.3-0.5,1.5c0,0.9,0.4,1.6,1.2,2.2c0.7,0.5,1.5,0.8,2.5,0.8c0.1,0,0.1,0,0.2-0.1c0.1,0,0.1-0.1,0.2-0.1
			c0.1,0,0.3,0.1,0.5,0.2c0.2,0.2,0.3,0.3,0.3,0.4c0,0.4-0.3,0.5-0.8,0.5c-0.1,0-0.1,0-0.3,0.1c-0.1,0.1-0.2,0.1-0.3,0.1
			c-0.7,0-1.5-0.2-2.4-0.6c-0.9-0.4-1.6-0.9-1.9-1.5c-0.2-0.4-0.5-0.9-0.9-1.6c0-0.1,0-0.2-0.1-0.3c-0.1-0.1-0.1-0.3-0.1-0.3
			c0-1.2,0.3-2.2,0.8-2.8c0.6-0.8,1.5-1.2,2.6-1.2c0.1,0,0.3,0,0.6-0.1c0.3,0,0.5-0.1,0.6-0.1c0.4,0,1,0.1,1.6,0.3
			C177.9,110.4,178.2,110.7,178.2,111z"/>
		<path class="st1" d="M189.1,114c0,1.1-0.5,2.1-1.6,3c-1.1,0.9-2.2,1.4-3.3,1.4h-0.7c-1,0-2-0.4-2.8-1.3c-0.8-0.8-1.2-1.8-1.2-2.8
			c0,0,0.1-0.3,0.3-0.9c0-0.2,0-0.3,0-0.3c0-0.4,0.3-1,0.8-1.8c0.5-0.8,1-1.2,1.4-1.2c0.1,0,0.2,0.1,0.4,0.2
			c0.2,0.1,0.3,0.2,0.4,0.2c0.1,0,0.3-0.1,0.6-0.2c0.2-0.1,0.4-0.2,0.5-0.2c0.7,0,1.2,0.1,1.4,0.2l0.3,0.2c0.1,0,0.1,0,0.2-0.1
			c0.1,0,0.2-0.1,0.2-0.1c0.1,0,0.3,0.2,0.6,0.4C188.3,111.7,189.1,112.8,189.1,114z M187.1,113.8c0-0.6-0.2-1.2-0.7-1.7
			c-0.5-0.5-1-0.7-1.7-0.7c-0.4,0-0.7,0.1-0.9,0.3l-0.5,0.5c-0.4,0.2-0.8,0.3-1.3,0.5c-0.3,0.2-0.4,0.6-0.4,1.3c0,2,0.5,3.1,1.6,3.1
			c0.8,0,1.7-0.3,2.5-1C186.6,115.3,187.1,114.6,187.1,113.8z"/>
		<path class="st1" d="M198.5,113.9c0,1.1-0.2,2-0.5,2.8c-0.1,0.3-0.1,0.7-0.3,1.2c-0.1,0.5-0.3,0.8-0.6,0.8c-0.1,0-0.2-0.1-0.2-0.2
			c-0.1-0.1-0.2-0.2-0.2-0.2c0,0-0.1,0-0.1,0c0,0,0,0-0.1,0c-0.1,0-0.1-0.1-0.2-0.3c-0.1-0.2-0.1-0.3-0.2-0.3c0,0-0.1,0-0.1,0
			c0.3-1.2,0.5-2.6,0.5-4.1c0-1.1-0.2-1.8-0.5-2c-0.4,0-0.9,0.3-1.6,1c-0.5,0.6-0.9,1.1-1.1,1.5c-0.2,0.4-0.4,1-0.6,1.7
			c-0.3,1.1-0.4,1.7-0.4,1.8c-0.1,0.4-0.3,0.6-0.7,0.6c-0.3,0-0.7-0.1-1-0.4c-0.4-0.2-0.5-0.5-0.5-0.9c0-3.3,0.1-5.3,0.3-5.9
			c0.1-0.3,0.4-0.4,0.9-0.4c0.3,0,0.5,0.1,0.8,0.4c0.2,0.2,0.4,0.5,0.4,0.8c0.2-0.2,0.5-0.5,0.9-0.8c0.4-0.4,0.8-0.5,1-0.5l0.1,0v0
			l0.1,0c0.1,0,0.1-0.1,0.2-0.2c0.1-0.1,0.2-0.1,0.3-0.1c0.6,0,1,0.1,1.1,0.2c0.1,0.1,0.2,0.2,0.3,0.2c0,0,0.1,0,0.1,0h0l0.1,0
			c0.6,0,1,0.4,1.4,1.2C198.3,112.6,198.5,113.3,198.5,113.9z"/>
		<path class="st1" d="M213.7,110.4c-0.9,0.1-1.9,0.5-2.8,1.3c-0.8,0.7-1.5,1.5-2,2.4c-0.2,0.3-0.3,0.7-0.4,1.2
			c-0.1,0.7-0.2,1.1-0.3,1.3c-0.1,0.5-0.2,0.8-0.2,1c-0.1,0.4-0.3,0.7-0.7,0.7c-0.3,0-0.6-0.1-1-0.4c-0.4-0.2-0.5-0.5-0.5-0.8
			c0-0.1,0-0.7,0-1.8c0-0.9,0-1.5,0-1.7c0-0.1,0-0.5,0.1-1.1c0-0.4,0.2-0.6,0.6-0.6c0.2,0,0.4,0.1,0.6,0.2c0.3,0.1,0.4,0.2,0.5,0.3
			c0.4-0.4,0.8-0.9,1.4-1.4l0.2,0.1c0-0.3,0.1-0.4,0.3-0.6c0,0,0.2-0.2,0.6-0.4c0.5-0.3,0.7-0.4,0.9-0.4c0,0,0.1,0,0.1,0
			c0,0,0,0,0.1,0c0.1,0,0.1,0,0.2-0.1c0.1-0.1,0.2-0.1,0.2-0.1c0,0,0.1,0,0.1,0.1c0,0,0,0.1,0.1,0.1l0.1,0l0-0.1l0.1,0
			c0.7,0,1.2,0.1,1.4,0.2c0.1,0.1,0.2,0.2,0.3,0.3C213.5,110.1,213.6,110.3,213.7,110.4z"/>
		<path class="st1" d="M222,112.5c0,0.8-0.6,1.5-1.7,2.3c-1,0.7-2,1-2.8,1c-0.1,0-0.7-0.1-1.5-0.2l0,0l0,0.1c0,0.3,0.2,0.6,0.6,1
			c0.4,0.4,1,0.6,1.7,0.7c0.4,0,1.1,0.1,1.9,0.3c0.8,0.1,1.2,0.2,1.2,0.2v0.6c-0.3,0-0.8,0-1.4,0.1c-0.6,0.1-1.1,0.1-1.4,0.1
			c-1.1,0-2.1-0.4-3.1-1.2c-1.1-0.9-1.6-1.8-1.6-2.8c0-0.8,0.3-1.6,0.9-2.4c0.6-0.8,1.3-1.4,2-1.7c0.7-0.3,1.4-0.4,2.2-0.4
			c0,0,0.1,0,0.2,0.1s0.2,0.1,0.2,0.1c0,0,0.1,0,0.1,0c0.1,0,0.1,0,0.2,0c0.1,0,0.3,0.1,0.8,0.4c0.7,0.3,1,0.6,1.1,0.7
			C221.9,111.6,222,112,222,112.5z M220.2,112.3c0-0.3-0.4-0.5-1.1-0.5c-0.6,0-1.2,0.3-1.8,0.8c-0.6,0.5-1,1.1-1.2,1.6
			c0.1,0,0.3,0,0.4,0c0.1,0,0.3,0,0.5,0c0.2,0,0.4,0,0.5,0c0.3,0,0.8-0.2,1.5-0.7C219.8,113,220.2,112.6,220.2,112.3z"/>
		<path class="st1" d="M229.5,110.5c0,0.4-0.2,0.6-0.6,0.6c-0.2,0-0.5,0-0.9-0.1c-0.4-0.1-0.7-0.1-0.9-0.1c-0.6,0-1.1,0.1-1.4,0.4
			c0,0.3,0,0.4,0,0.6c0,0.8,0.3,1.6,0.8,2.4c0.3,0.4,0.8,1,1.5,1.8c0.5,0.6,0.8,1,0.8,1.2c0,0.8-1.2,1.3-3.6,1.3
			c-0.2,0-0.5-0.1-0.9-0.3c-0.4-0.2-0.7-0.3-0.8-0.5v-0.3c0.7-0.1,1.2-0.2,1.4-0.2c0.3,0,0.6,0,1-0.1c0.5-0.1,0.7-0.3,0.7-0.5
			c0-0.1-0.3-0.5-0.8-1.1c-0.6-0.7-1-1.4-1.4-2c-0.5-1-0.8-1.9-0.8-2.9c0-0.4,0.2-0.6,0.7-0.8c0.4-0.1,0.7-0.2,1.1-0.3l0.1,0.1
			c0.3-0.1,0.9-0.2,1.8-0.2c0.3,0,0.7,0.1,1.2,0.3C229.3,110,229.5,110.2,229.5,110.5z"/>
		<path class="st1" d="M240.6,112.4c0,3.3-2,5.3-6.1,6.2c-0.2,1.4-0.3,3-0.3,4.7c0,0.2-0.1,0.4-0.4,0.7c-0.1,0-0.2,0-0.3,0
			c-0.6,0-1.1-0.2-1.6-0.7v-2.2c0-0.6,0.1-2.4,0.4-5.4c0.1-1,0.1-1.9,0.1-2.9c0.2-1.5,0.5-2.3,1.1-2.3c0.1,0,0.3,0.1,0.5,0.2
			c0.2,0.1,0.4,0.2,0.5,0.2c0.1-0.1,0.3-0.2,0.5-0.5c0.5-0.5,1.4-0.8,2.8-0.8c0,0,0.1,0,0.2,0.1c0.1,0.1,0.1,0.1,0.2,0.1
			c0.1,0,0.1,0,0.2-0.1l0.1,0.1c0.4,0.1,0.9,0.5,1.4,1C240.3,111.5,240.6,112,240.6,112.4z M238.6,112.4c0-0.3-0.1-0.6-0.3-0.9
			c-0.2-0.3-0.4-0.5-0.7-0.5c-1.4,0-2.3,1.2-2.7,3.7l-0.3,2.4c0.1,0,0.2,0,0.2,0.1c0,0,0.1,0.1,0.1,0.1c0.6-0.5,1-0.7,1.2-0.7
			c0.1,0,0.2-0.1,0.4-0.4c0.7-0.8,1.2-1.4,1.4-1.7C238.4,113.8,238.6,113.1,238.6,112.4z"/>
		<path class="st1" d="M251.8,114c0,1.1-0.5,2.1-1.6,3c-1.1,0.9-2.2,1.4-3.3,1.4h-0.7c-1,0-2-0.4-2.8-1.3c-0.8-0.8-1.2-1.8-1.2-2.8
			c0,0,0.1-0.3,0.3-0.9c0-0.2,0-0.3,0-0.3c0-0.4,0.3-1,0.8-1.8c0.5-0.8,1-1.2,1.4-1.2c0.1,0,0.2,0.1,0.4,0.2
			c0.2,0.1,0.3,0.2,0.4,0.2c0.1,0,0.3-0.1,0.6-0.2c0.2-0.1,0.4-0.2,0.5-0.2c0.7,0,1.2,0.1,1.4,0.2l0.3,0.2c0.1,0,0.1,0,0.2-0.1
			c0.1,0,0.2-0.1,0.2-0.1c0.1,0,0.3,0.2,0.6,0.4C250.9,111.7,251.8,112.8,251.8,114z M249.7,113.8c0-0.6-0.2-1.2-0.7-1.7
			c-0.5-0.5-1-0.7-1.7-0.7c-0.4,0-0.7,0.1-0.9,0.3l-0.5,0.5c-0.4,0.2-0.8,0.3-1.3,0.5c-0.3,0.2-0.4,0.6-0.4,1.3c0,2,0.5,3.1,1.6,3.1
			c0.8,0,1.7-0.3,2.5-1C249.3,115.3,249.7,114.6,249.7,113.8z"/>
		<path class="st1" d="M261.2,113.9c0,1.1-0.2,2-0.5,2.8c-0.1,0.3-0.1,0.7-0.3,1.2c-0.1,0.5-0.3,0.8-0.6,0.8c-0.1,0-0.2-0.1-0.2-0.2
			c-0.1-0.1-0.2-0.2-0.2-0.2c0,0-0.1,0-0.1,0c0,0,0,0-0.1,0c-0.1,0-0.1-0.1-0.2-0.3c-0.1-0.2-0.1-0.3-0.2-0.3c0,0-0.1,0-0.1,0
			c0.3-1.2,0.5-2.6,0.5-4.1c0-1.1-0.2-1.8-0.5-2c-0.4,0-0.9,0.3-1.6,1c-0.5,0.6-0.9,1.1-1.1,1.5c-0.2,0.4-0.4,1-0.6,1.7
			c-0.3,1.1-0.4,1.7-0.4,1.8c-0.1,0.4-0.3,0.6-0.7,0.6c-0.3,0-0.7-0.1-1-0.4c-0.3-0.2-0.5-0.5-0.5-0.9c0-3.3,0.1-5.3,0.3-5.9
			c0.1-0.3,0.4-0.4,0.9-0.4c0.3,0,0.5,0.1,0.8,0.4c0.2,0.2,0.4,0.5,0.4,0.8c0.2-0.2,0.5-0.5,0.9-0.8c0.4-0.4,0.8-0.5,1-0.5l0.1,0v0
			l0.1,0c0.1,0,0.1-0.1,0.2-0.2c0.1-0.1,0.2-0.1,0.3-0.1c0.6,0,1,0.1,1.1,0.2c0.1,0.1,0.2,0.2,0.3,0.2c0,0,0.1,0,0.1,0h0l0.1,0
			c0.6,0,1,0.4,1.4,1.2C261,112.6,261.2,113.3,261.2,113.9z"/>
		<path class="st1" d="M269,110.5c0,0.4-0.2,0.6-0.6,0.6c-0.2,0-0.5,0-0.9-0.1c-0.4-0.1-0.7-0.1-0.9-0.1c-0.6,0-1.1,0.1-1.4,0.4
			c0,0.3,0,0.4,0,0.6c0,0.8,0.3,1.6,0.8,2.4c0.3,0.4,0.8,1,1.5,1.8c0.5,0.6,0.8,1,0.8,1.2c0,0.8-1.2,1.3-3.6,1.3
			c-0.2,0-0.5-0.1-0.9-0.3c-0.4-0.2-0.7-0.3-0.8-0.5v-0.3c0.7-0.1,1.2-0.2,1.4-0.2c0.3,0,0.6,0,1-0.1c0.5-0.1,0.7-0.3,0.7-0.5
			c0-0.1-0.3-0.5-0.8-1.1c-0.6-0.7-1-1.4-1.4-2c-0.5-1-0.8-1.9-0.8-2.9c0-0.4,0.2-0.6,0.7-0.8c0.4-0.1,0.7-0.2,1.1-0.3l0.1,0.1
			c0.3-0.1,0.9-0.2,1.8-0.2c0.3,0,0.7,0.1,1.2,0.3C268.7,110,269,110.2,269,110.5z"/>
		<path class="st1" d="M280.9,117.9c0,0.7-0.5,1.1-1.4,1.1c-0.1,0-0.1,0-0.3-0.1l-0.2-0.1c-0.6-0.4-1-0.7-1.1-0.8l-0.7-1
			c-1,0.6-1.5,0.9-1.6,1c-0.6,0.3-1.2,0.5-1.8,0.5c-0.1,0-0.2,0-0.3-0.1c-0.1-0.1-0.2-0.1-0.3-0.1c0,0-0.1,0-0.2,0
			c-0.1,0-0.2,0-0.2,0c-0.8,0-1.5-0.4-2.1-1.2c-0.5-0.7-0.8-1.5-0.8-2.4c0-2.2,0.9-3.5,2.8-3.8c0.4-0.3,1-0.4,2-0.4
			c0.7,0,1.4,0.1,2,0.3c0.9,0.3,1.4,0.7,1.5,1.2c0.1,0.3,0.1,0.6,0.2,1.1c0,0.5,0.1,0.9,0.1,1.2c0.1,0.5,0.2,1,0.5,1.7
			c0.3,0.9,0.6,1.4,0.8,1.4c0,0,0.1,0,0.1,0c0.1,0,0.1,0,0.1,0c0.1,0,0.3,0.1,0.4,0.3C280.8,117.6,280.9,117.8,280.9,117.9z
			 M276.4,112.2c0,0,0-0.1-0.1-0.2c-0.6-0.1-1.3-0.2-2.2-0.2c-0.4,0-0.9,0.3-1.4,0.8c-0.5,0.5-0.7,1-0.7,1.5c0,2,0.6,3,1.9,3
			c0.2,0,0.5-0.1,0.9-0.4c0.4-0.2,0.6-0.4,0.8-0.6c0.4-0.4,0.6-1,0.6-1.7c0-0.3,0-0.9,0-1.9C276.3,112.3,276.4,112.3,276.4,112.2z"
			/>
		<path class="st1" d="M291.9,113c0,0.1-0.1,0.5-0.3,1.3c-0.2,0.2-0.3,0.6-0.5,1.2c-0.2,0.6-0.3,1-0.6,1.2c-0.5,0.4-1.1,0.8-1.8,1.2
			c-0.8,0.4-1.5,0.5-2.1,0.5c-1.3,0-1.9-0.5-1.9-1.5v-0.1c0.4,0.2,0.7,0.3,0.7,0.3c0.2,0,0.4,0,0.8,0c0.4,0,0.6,0,0.8,0
			c0.1,0,0.2,0,0.3-0.1c1-0.7,1.7-1.2,2-1.6c0.4-0.6,0.6-1.4,0.6-2.4c0-0.3-0.2-0.6-0.5-0.9c-0.3-0.3-0.6-0.5-1-0.5
			c-0.9,0-1.7,0.8-2.5,2.5c-0.1,0.2-0.2,0.5-0.4,0.8c-0.2,0.3-0.4,0.5-0.7,0.5c-0.2,0-0.4-0.1-0.8-0.4c-0.4-0.2-0.6-0.4-0.6-0.6
			c0-1.1,0-2.5,0.1-4.1c0-0.9,0.2-2.2,0.5-3.8c0-0.1,0-0.3,0-0.4c0-0.1,0-0.2,0-0.4c0-0.2,0-0.3,0-0.4c0-1,0.3-1.4,0.8-1.4
			c0.3,0,0.6,0.1,0.9,0.2c0.4,0.1,0.6,0.3,0.6,0.6c0,0.3-0.1,0.7-0.2,1.2c-0.2,0.6-0.3,1-0.3,1.2c-0.2,1.3-0.3,2.6-0.3,3.7l0.1,0.1
			c1.3-0.4,2.3-0.7,2.9-0.7c0.6,0,1.3,0.3,2.1,1C291.5,111.7,291.9,112.4,291.9,113z"/>
		<path class="st1" d="M295.7,112.2c0,0.2,0,0.4,0,0.7c0,0.3,0,0.5,0,0.7c0,0.4,0,0.8,0,1.3c0,0.6,0,1.1,0,1.3c0,1-0.1,1.7-0.3,2.1
			c-0.1,0-0.1,0-0.3,0.1c-0.1,0.1-0.2,0.1-0.3,0.1c-0.2,0-0.3,0-0.3-0.1l-0.2-0.3l-0.1,0.2c-0.6-0.9-0.8-1.9-0.8-3V113
			c0-0.7,0-1.1,0.1-1.3c0.1-0.5,0.4-0.8,0.8-0.8c0.4,0,0.7,0.1,1,0.3C295.5,111.5,295.7,111.8,295.7,112.2z M296.6,106.3
			c0,0.4-0.2,0.6-0.7,0.6c-0.3,0-0.7-0.2-1.3-0.7c-0.6-0.4-0.9-0.8-0.9-1.1c0-0.1,0-0.3,0.1-0.4c0.3,0.1,0.7,0.1,1.3,0.2
			C296.1,105.6,296.6,106,296.6,106.3z"/>
		<path class="st1" d="M301,105.5c0,1.2-0.1,2.9-0.3,5.3c-0.2,2.3-0.3,4.1-0.3,5.3c0,1.6-0.3,2.4-0.8,2.4c0,0-0.4-0.2-1.2-0.7
			c-0.1-0.4-0.2-0.9-0.2-1.6c0-1,0.1-2.5,0.2-4.5c0.2-2,0.2-3.5,0.2-4.5V105c0.2-0.3,0.5-0.5,0.9-0.5c0.3,0,0.6,0.1,0.9,0.3
			C300.8,105,301,105.2,301,105.5z"/>
		<path class="st1" d="M305.1,112.2c0,0.2,0,0.4,0,0.7c0,0.3,0,0.5,0,0.7c0,0.4,0,0.8,0,1.3c0,0.6,0,1.1,0,1.3c0,1-0.1,1.7-0.3,2.1
			c-0.1,0-0.1,0-0.3,0.1c-0.1,0.1-0.2,0.1-0.3,0.1c-0.2,0-0.3,0-0.3-0.1l-0.2-0.3l-0.1,0.2c-0.6-0.9-0.8-1.9-0.8-3V113
			c0-0.7,0-1.1,0.1-1.3c0.1-0.5,0.4-0.8,0.8-0.8c0.4,0,0.7,0.1,1,0.3C304.9,111.5,305.1,111.8,305.1,112.2z M306,106.3
			c0,0.4-0.2,0.6-0.7,0.6c-0.3,0-0.7-0.2-1.3-0.7c-0.6-0.4-0.9-0.8-0.9-1.1c0-0.1,0-0.3,0.1-0.4c0.3,0.1,0.7,0.1,1.3,0.2
			C305.5,105.6,306,106,306,106.3z"/>
		<path class="st1" d="M318.2,108c0,1.9-0.6,3.9-1.7,6.2c-0.4,0.8-1.2,1.7-2.2,2.7c-1.2,1-2.2,1.6-3,1.6h-1.2
			c-0.1,0-0.2-0.1-0.5-0.3c-0.8-0.5-1.2-0.9-1.4-1.1c-0.4-0.5-0.7-1-0.7-1.7c0-0.6,0.3-1.5,1-2.6c0.7-1.2,1.3-1.8,1.9-1.8
			c0.2-0.2,0.5-0.4,1.1-0.7c0.5-0.3,0.9-0.4,1.2-0.4l0.1,0l0,0.1l0.1,0c0.1,0,0.3,0,0.5-0.1c0.2,0,0.4-0.1,0.5-0.1
			c0.3,0,0.7,0.1,1.1,0.2c0.4,0.2,0.7,0.4,0.8,0.7c0.4-1,0.7-1.8,0.8-2.5c0.1-0.4,0.1-1.3,0.1-2.6c0-0.8,0-1.3-0.1-1.5
			c0.1,0,0.3,0,0.6-0.1c0.2,0,0.4-0.1,0.6-0.1c0.4,0,0.7,0.4,0.8,1.3c-0.1,0.2-0.1,0.6-0.1,1.2c0,0.3,0,0.6,0,0.8
			C318.2,107.7,318.2,107.8,318.2,108C318.2,108,318.2,108,318.2,108z M315.3,111.9c0-0.1,0-0.2-0.1-0.3c-0.1,0-0.2,0.1-0.3,0.1
			c-0.1,0-0.3-0.1-0.6-0.2c-0.3-0.1-0.5-0.2-0.6-0.2c-0.1,0-0.4,0.1-1,0.3c-0.9,0.3-1.6,0.8-2.2,1.5c-0.7,0.8-1,1.6-1,2.4
			c0,0.4,0.1,0.7,0.3,1c0.2,0.3,0.5,0.5,0.8,0.5c0.1,0,0.1,0,0.3,0c0.1,0,0.2,0,0.3,0c0.6,0,1.4-0.7,2.5-2
			C314.8,113.5,315.3,112.6,315.3,111.9z"/>
		<path class="st1" d="M330.1,117.9c0,0.7-0.5,1.1-1.4,1.1c-0.1,0-0.1,0-0.3-0.1l-0.2-0.1c-0.6-0.4-1-0.7-1.1-0.8l-0.7-1
			c-1,0.6-1.5,0.9-1.6,1c-0.6,0.3-1.2,0.5-1.8,0.5c-0.1,0-0.2,0-0.3-0.1c-0.1-0.1-0.2-0.1-0.3-0.1c0,0-0.1,0-0.2,0
			c-0.1,0-0.2,0-0.2,0c-0.8,0-1.5-0.4-2.1-1.2c-0.5-0.7-0.8-1.5-0.8-2.4c0-2.2,0.9-3.5,2.8-3.8c0.4-0.3,1-0.4,2-0.4
			c0.7,0,1.4,0.1,2,0.3c0.9,0.3,1.4,0.7,1.5,1.2c0.1,0.3,0.1,0.6,0.2,1.1c0,0.5,0.1,0.9,0.1,1.2c0.1,0.5,0.2,1,0.5,1.7
			c0.3,0.9,0.6,1.4,0.8,1.4c0,0,0.1,0,0.1,0c0.1,0,0.1,0,0.1,0c0.1,0,0.3,0.1,0.4,0.3C330,117.6,330.1,117.8,330.1,117.9z
			 M325.6,112.2c0,0,0-0.1-0.1-0.2c-0.6-0.1-1.3-0.2-2.2-0.2c-0.4,0-0.9,0.3-1.4,0.8c-0.5,0.5-0.7,1-0.7,1.5c0,2,0.6,3,1.9,3
			c0.2,0,0.5-0.1,0.9-0.4c0.4-0.2,0.6-0.4,0.8-0.6c0.4-0.4,0.6-1,0.6-1.7c0-0.3,0-0.9,0-1.9C325.5,112.3,325.6,112.3,325.6,112.2z"
			/>
		<path class="st1" d="M342.5,108c0,1.9-0.6,3.9-1.7,6.2c-0.4,0.8-1.2,1.7-2.2,2.7c-1.2,1-2.2,1.6-3,1.6h-1.2
			c-0.1,0-0.2-0.1-0.5-0.3c-0.8-0.5-1.2-0.9-1.4-1.1c-0.4-0.5-0.7-1-0.7-1.7c0-0.6,0.3-1.5,1-2.6c0.7-1.2,1.3-1.8,1.9-1.8
			c0.2-0.2,0.5-0.4,1.1-0.7c0.5-0.3,0.9-0.4,1.2-0.4l0.1,0l0,0.1l0.1,0c0.1,0,0.3,0,0.5-0.1c0.2,0,0.4-0.1,0.5-0.1
			c0.3,0,0.7,0.1,1.1,0.2c0.4,0.2,0.7,0.4,0.8,0.7c0.4-1,0.7-1.8,0.8-2.5c0.1-0.4,0.1-1.3,0.1-2.6c0-0.8,0-1.3-0.1-1.5
			c0.1,0,0.3,0,0.6-0.1c0.2,0,0.4-0.1,0.6-0.1c0.4,0,0.7,0.4,0.8,1.3c-0.1,0.2-0.1,0.6-0.1,1.2c0,0.3,0,0.6,0,0.8
			C342.4,107.7,342.4,107.8,342.5,108C342.5,108,342.5,108,342.5,108z M339.6,111.9c0-0.1,0-0.2-0.1-0.3c-0.1,0-0.2,0.1-0.3,0.1
			c-0.1,0-0.3-0.1-0.6-0.2c-0.3-0.1-0.5-0.2-0.6-0.2c-0.1,0-0.4,0.1-1,0.3c-0.9,0.3-1.6,0.8-2.2,1.5c-0.7,0.8-1,1.6-1,2.4
			c0,0.4,0.1,0.7,0.3,1c0.2,0.3,0.5,0.5,0.8,0.5c0.1,0,0.1,0,0.3,0c0.1,0,0.2,0,0.3,0c0.6,0,1.4-0.7,2.5-2
			C339,113.5,339.6,112.6,339.6,111.9z"/>
	</g>
</g>
</svg>
