<svg xmlns="http://www.w3.org/2000/svg" width="25.463" height="36" viewBox="0 0 25.463 36">
  <g id="Iconos-app-codere-Expand_icon-poi" transform="translate(0)">
    <path id="Path_21" data-name="Path 21" d="M41.481,6.635a12.883,12.883,0,0,0-5.516-5.309A12.706,12.706,0,0,0,30.3,0h0A12.733,12.733,0,0,0,18.883,18.36c.3.6.669,1.2,1.029,1.774q.711,1.143,1.419,2.287l2.017,3.25q1.107,1.783,2.212,3.565l2.008,3.235,1.4,2.263.348.561.066.105a1.3,1.3,0,0,0,1.1.6h0a1.3,1.3,0,0,0,1.092-.627l.057-.1.9-1.522,1.7-2.842q1.053-1.75,2.1-3.508l2.1-3.526q.894-1.437,1.774-2.872l.96-1.606a13.028,13.028,0,0,0,1.759-5,12.769,12.769,0,0,0-1.446-7.77Zm-.933,7.451A10.59,10.59,0,0,1,39.1,18.159l-.963,1.606L36.4,22.658l-.9,1.5-1.2,2.029-2.1,3.508-.852,1.422L30.5,32.537l-.027.045-.429-.69-.435-.681-1.1-1.786-.9-1.455-1.1-1.783L25.392,24.4,24.144,22.4l-.771-1.242-1.113-1.8-.3-.5-.093-.147c-.3-.5-.6-.963-.825-1.422A10.344,10.344,0,0,1,28.591,2.542,10.533,10.533,0,0,1,30.3,2.4a10.311,10.311,0,0,1,4.589,1.074A10.5,10.5,0,0,1,39.374,7.8,10.377,10.377,0,0,1,40.547,14.087Z" transform="translate(-17.572 0)" fill="#fff"/>
    <path id="Path_22" data-name="Path 22" d="M45.16,19.21a6.33,6.33,0,1,0,6.33,6.33A6.33,6.33,0,0,0,45.16,19.21Zm0,10.867A4.536,4.536,0,1,1,49.7,25.54a4.536,4.536,0,0,1-4.536,4.536Z" transform="translate(-32.428 -13.434)" fill="#fff"/>
  </g>
</svg>
