<?xml version="1.0" encoding="utf-8"?>
<!-- Generator: Adobe Illustrator 26.3.1, SVG Export Plug-In . SVG Version: 6.00 Build 0)  -->
<svg version="1.1" id="Layer_1" xmlns="http://www.w3.org/2000/svg" xmlns:xlink="http://www.w3.org/1999/xlink" x="0px" y="0px"
	 viewBox="0 0 263.9 348.3" style="enable-background:new 0 0 263.9 348.3;" xml:space="preserve">
<style type="text/css">
	
		.st0{clip-path:url(#SVGID_00000126311184941896049990000010498947657159497612_);fill:#FFFFFF;stroke:#FFFFFF;stroke-width:2;stroke-miterlimit:10;}
	.st1{clip-path:url(#SVGID_00000126311184941896049990000010498947657159497612_);fill:#FFFFFF;}
</style>
<g>
	<defs>
		<rect id="SVGID_1_" y="0.8" width="263.9" height="347.5"/>
	</defs>
	<clipPath id="SVGID_00000178188374734890870780000015132053268359739033_">
		<use xlink:href="#SVGID_1_"  style="overflow:visible;"/>
	</clipPath>
	
		<path style="clip-path:url(#SVGID_00000178188374734890870780000015132053268359739033_);fill:#FFFFFF;stroke:#FFFFFF;stroke-width:2;stroke-miterlimit:10;" d="
		M79.6,126.7c-4.1-9.3-8.2-18-11.8-26.9c-2.3-5.6-4.2-11.5-5.5-17.4C55,48.1,77.9,12.6,113.2,3.2c44.1-11.7,88,21.8,88,67.5
		c0,12.2-4.4,23.4-9,34.5c-3,7.1-6.4,14-9.8,21.5h4.2c19,0,37.9,0,56.9,0c6,0,7.5,1.2,8.5,7.1c3.9,23,7.9,45.9,11.5,69
		c0.8,5.2,0.7,10.8,0,16c-1.1,9.2-6.2,16-14.8,19.6c-2.4,1-2.9,2.4-2.9,4.7c0.1,32.2,0,64.4,0,96.6c0,6.9-1.7,8.7-8.6,8.7
		c-70.1,0-140.2,0-210.3,0c-7,0-8.7-1.7-8.7-8.9c0-32.1,0-64.1,0-96.2c0-2.5-0.5-3.8-3.1-5c-9.7-4.3-14.4-12.1-15-22.7
		c-0.7-13.4,2.7-26.2,4.7-39.3c2.2-14.4,4.8-28.8,7.2-43.1c0.9-5,2.6-6.4,7.9-6.5c18.5,0,36.9,0,55.4,0H79.6z M233.4,336.3v-95.7
		c-6.9-0.6-12.8-3.5-17.7-8.6c-5.9,6.2-12.9,8.7-21.1,8.7c-8.2,0-15.1-2.7-20.7-8.5c-10.4,11-30.5,11.9-42.2,0.1
		c-5.6,5.9-12.6,8.4-20.7,8.5c-8.3,0-15.3-2.7-21.1-8.6c-5.9,6.2-12.9,8.6-21.1,8.6c-8.2,0-15-2.7-20.8-8.7
		c-4.9,5.3-10.8,8-17.7,8.7v95.6H84v-4.3c0-19.7,0-39.4,0-59.2c0-6.4,1.9-8.2,8.2-8.2c26.4,0,52.9,0,79.4,0c6.4,0,8.2,1.9,8.2,8.2
		c0,19.8,0,39.7,0,59.5c0,1.3,0,2.6,0,4H233.4z M130.9,12.8c-40.7,0.1-67.6,41-54.7,75.4c12.1,32.1,29.3,61.3,49.1,89.2
		c3.4,4.8,8.4,4.3,12-0.7c17.2-24.1,32.3-49.5,44-76.8c4-9.4,7.9-19,7.9-29.4C189.1,38.6,162.8,12.8,130.9,12.8 M167.7,276.7H96.3
		v59.4h71.4V276.7z M83.7,139H54.2v59.4h29.5V139z M180.1,138.8v59.4h29.7v-29.8v-29.6H180.1z M167.7,153
		c-7.1,10.6-13.6,20.7-20.6,30.6c-8.5,12.1-23.3,12-32,0.2c-3.4-4.6-6.6-9.4-9.8-14.2c-3-4.5-5.9-9.1-9.1-14.1v42.9h71.4V153z
		 M41.8,198.4v-59.5H23.1c-3.3,19.9-6.6,39.6-9.9,59.5H41.8z M250.6,198.4c-3.4-20.1-6.6-39.8-9.9-59.6h-18.7v59.6H250.6z
		 M12.3,210.7c-0.8,6.9,0.2,12.9,6.5,16.1c5.8,2.9,12.2,3,17.8-0.8c5.4-3.6,6-9.2,5.2-15.3H12.3z M54.3,210.7
		c-0.8,6.8,0.1,12.9,6.5,16.1c5.8,3,12.2,3,17.8-0.7c5.4-3.6,6.1-9.2,5.2-15.3H54.3z M96.2,210.7c-0.8,6.5,0,12.4,6,15.8
		c5.8,3.2,12.1,3.3,17.8-0.2c5.8-3.5,6.5-9.2,5.7-15.6H96.2z M138.1,210.7c-0.8,6.9,0.1,12.9,6.5,16.1c5.8,3,12.2,3,17.8-0.8
		c5.4-3.6,6.1-9.2,5.2-15.3H138.1z M180.1,210.7c-0.8,8.2,0.9,13.2,6,15.9c5.9,3.1,12.1,3.2,17.8-0.3c5.7-3.5,6.4-9.3,5.6-15.5
		H180.1z M222,210.7c-0.8,6.5,0,12.4,6,15.8c5.8,3.2,12.1,3.2,17.8-0.2c5.7-3.5,6.5-9.2,5.7-15.6H222z"/>
	<path style="clip-path:url(#SVGID_00000178188374734890870780000015132053268359739033_);fill:#FFFFFF;" d="M149,86.3
		c-4.3,6.8-9.7,10.3-16.3,10.3c-12.7,0-22.3-10-22.3-23.2c0-11.5,7.3-23.3,21.4-23.3c11,0,14.9,7,17.1,10.8l0.3,0.6h23.5l-0.5-1.6
		c-5.6-17.6-22-29.5-40.4-29.4c-11.1,0.1-21.7,4.4-29.6,12.1c-8.3,8-13,19-13,30.6c-0.1,23.7,19.1,43,42.8,43.2
		c18.7,0,33.7-10.8,40.2-28.8l0.6-1.7h-23.5L149,86.3z"/>
</g>
</svg>
