<svg id="Iconos-app-codere-Expand_icon-promocion" xmlns="http://www.w3.org/2000/svg" width="39.076" height="35.871" viewBox="0 0 39.076 35.871">
  <path id="Path_23" data-name="Path 23" d="M10.9,61.246a1.5,1.5,0,0,0-.086-.329L8.47,54.9a1.507,1.507,0,0,0-1.948-.856L3.83,55.1a4.746,4.746,0,0,0-2.709,6.128h0A4.752,4.752,0,0,0,5.545,64.24a4.634,4.634,0,0,0,1.7-.329l.583-.227L11.189,72.3a.987.987,0,0,0,.928.632.961.961,0,0,0,.359-.066l3.179-1.237a.987.987,0,0,0,.566-1.29Zm-3.071-.188a2.633,2.633,0,0,0-.954.181l-.583.227a2.093,2.093,0,0,1-.75.142A2.126,2.126,0,0,1,3.57,60.271,2.1,2.1,0,0,1,4.765,57.55l1.646-.658,1.639,4.176Q7.941,61.058,7.832,61.058Z" transform="translate(-0.803 -37.058)" fill="#fff"/>
  <path id="Path_24" data-name="Path 24" d="M43.95,24.083,39.919,13.739A.747.747,0,0,0,39.2,13.3a1.04,1.04,0,0,0-.365.069l-1.1.431a.819.819,0,0,0-.546,1.007l.145.369-.1.178A31.848,31.848,0,0,1,26.86,26.212l1.534,3.933,1.534,3.949a33.879,33.879,0,0,1,5.559-.49A30.65,30.65,0,0,1,44.9,35.049l.2.066.145.372a.75.75,0,0,0,.721.441.987.987,0,0,0,.359-.063l1.1-.428a.819.819,0,0,0,.543-1.007Zm-8.465,6.888a36.256,36.256,0,0,0-3.86.207l-.77-1.991-.78-2a34.474,34.474,0,0,0,8.679-9.235L41.5,25.047l2.758,7.076a33.615,33.615,0,0,0-8.771-1.152Z" transform="translate(-18.285 -9.791)" fill="#fff"/>
  <path id="Path_25" data-name="Path 25" d="M81.932,13.03l-.2-.161a.988.988,0,1,0-1.234,1.544l.158.132a17.5,17.5,0,0,1,4.7,6.974,17.75,17.75,0,0,1,1.26,8.34,1.383,1.383,0,0,1-.026.2.987.987,0,0,0,.846,1.135h.145a.987.987,0,0,0,.987-.846,1.586,1.586,0,0,1,.033-.247,20.009,20.009,0,0,0-1.382-9.3A19.557,19.557,0,0,0,81.932,13.03Z" transform="translate(-54.018 -9.359)" fill="#fff"/>
  <path id="Path_26" data-name="Path 26" d="M96.791,12.161a29.119,29.119,0,0,0-6.78-9.281.988.988,0,0,0-1.28,1.5,27.1,27.1,0,0,1,6.22,8.494A31.089,31.089,0,0,1,96.6,23.86a.987.987,0,0,0,.859,1.1h.122a.987.987,0,0,0,.987-.866A32.689,32.689,0,0,0,96.791,12.161Z" transform="translate(-59.561 -2.644)" fill="#fff"/>
</svg>
