<svg id="Iconos-app-codere-Expand_icon-LiveRoulette" xmlns="http://www.w3.org/2000/svg" width="35.094" height="36" viewBox="0 0 35.094 36">
  <g id="Group_19" data-name="Group 19">
    <path id="Path_52" data-name="Path 52" d="M46.668,12.616a.561.561,0,0,0-.844.158.63.63,0,0,0,.132.871,10.219,10.219,0,0,0,5.884,1.662c.29,0,.58,0,.9-.026a.636.636,0,0,0-.079-1.266,9.9,9.9,0,0,1-5.99-1.4" transform="translate(-31.971 -8.737)" fill="#fff" fill-rule="evenodd"/>
    <path id="Path_53" data-name="Path 53" d="M26.118,17.972a3.269,3.269,0,0,1,1.89-1.611V17.51c.2-.041.4-.08.607-.117V16.229c.37-.053.739-.106,1.135-.132.132,0,.237-.026.37-.026l.689,1c.186-.02.373-.038.562-.056l-.222-.312a5.01,5.01,0,0,0,.534.284c.971-.082,1.975-.125,3-.125s2.037.044,3.011.126a3.691,3.691,0,0,0,.525-.284L38,17.016c.18.017.36.034.537.053l.691-1c.132,0,.237.026.369.026a7.8,7.8,0,0,1,1.135.132v1.159c.2.037.407.076.607.117V16.361a3.265,3.265,0,0,1,1.885,1.6q.869.247,1.651.543v-.139l-.079-.132c-1.214-2.877-3.008-3.219-3.589-3.351-.026,0-.053-.026-.079-.026a7.583,7.583,0,0,0-1.531-.185c-.29-.026-.554-.026-.739-.053l-.633-1.346a10.066,10.066,0,0,0,1.662-2.8A2.847,2.847,0,0,0,40.86,8.55,3.184,3.184,0,0,0,40.6,6.412c-.053-.053-.079-.105-.132-.158a5.758,5.758,0,0,0-.106-.712c-.026-.079-.026-.158-.053-.238a1.32,1.32,0,0,0-.053-.316V4.935a7.1,7.1,0,0,0-.5-2.085A5.534,5.534,0,0,0,34.685,0a5.62,5.62,0,0,0-5.12,2.876,7.1,7.1,0,0,0-.5,2.085v.053a1.325,1.325,0,0,0-.053.317c-.026.079-.026.158-.053.238a5.817,5.817,0,0,0-.105.712c-.053.053-.079.105-.132.158a3.156,3.156,0,0,0-.264,2.137,2.845,2.845,0,0,0,.976,1.926A10.075,10.075,0,0,0,31.1,13.3l-.58,1.319a3.24,3.24,0,0,1-.739.053,8.062,8.062,0,0,0-1.531.185c-.026,0-.053.026-.079.026-.58.132-2.375.449-3.589,3.351l-.079.132V18.5q.766-.288,1.619-.533M37.06,15.7c-.132.053-.29.106-.422.158a7.555,7.555,0,0,1-1.979.238,6.78,6.78,0,0,1-1.953-.238c-.132-.053-.29-.105-.422-.158a1.6,1.6,0,0,1-.739-.5l.5-1.056a5.025,5.025,0,0,0,1.082.633,4.567,4.567,0,0,0,3.061,0,4.137,4.137,0,0,0,1.082-.633l.5,1.056a1.248,1.248,0,0,1-.712.5M30.515,9.79l-.105-.264-.29-.079a1.994,1.994,0,0,1-.475-1.108A1.967,1.967,0,0,1,29.7,7.178l.317-.158V6.6a4.912,4.912,0,0,1,.106-.844c.026-.079.026-.158.053-.238a1.335,1.335,0,0,0,.053-.343V5.12a7.154,7.154,0,0,1,.4-1.715,4.71,4.71,0,0,1,4.09-2.19A4.431,4.431,0,0,1,38.8,3.4a7.169,7.169,0,0,1,.4,1.715v.053a1.335,1.335,0,0,0,.053.343c.026.053.026.158.053.238a4.609,4.609,0,0,1,.106.844v.422l.316.158a2.7,2.7,0,0,1,.053,1.161A1.994,1.994,0,0,1,39.3,9.447L38.96,9.5l-.106.264a7.976,7.976,0,0,1-1.794,2.9,4.3,4.3,0,0,1-1.372.95c-.026,0-.053.026-.079.026a3.635,3.635,0,0,1-1,.105,3.105,3.105,0,0,1-.871-.105c-.026,0-.053-.026-.079-.026a4.445,4.445,0,0,1-1.372-.95A8.181,8.181,0,0,1,30.515,9.79" transform="translate(-17.138)" fill="#fff" fill-rule="evenodd"/>
  </g>
  <g id="Group_20" data-name="Group 20">
    <path id="Path_45" data-name="Path 45" d="M35.094,66.11c-.18-3.882-7.962-6.993-17.547-6.993S.18,62.228,0,66.11v4.253c.18,3.882,7.962,6.993,17.547,6.993s17.366-3.111,17.547-6.993ZM17.547,76.384c-8.713,0-16.1-2.711-16.285-6.051V66.11c.18-3.368,7.572-6.079,16.285-6.079s16.1,2.712,16.285,6.051v4.253c-.18,3.368-7.572,6.051-16.285,6.051" transform="translate(0 -41.355)" fill="#fff"/>
    <path id="Path_47" data-name="Path 47" d="M25.8,74.8c-7.872,0-14-2.283-14-5.166s6.129-5.195,14-5.195,14,2.283,14,5.166S33.673,74.8,25.8,74.8m0-9.618c-7.121,0-13.13,2.026-13.13,4.452s6.009,4.452,13.13,4.452,13.13-2.027,13.13-4.452-6.009-4.452-13.13-4.452" transform="translate(-8.255 -44.076)" fill="#fff"/>
    <path id="Path_48" data-name="Path 48" d="M89.372,77.18a1.5,1.5,0,1,1-1.487,1.5,1.493,1.493,0,0,1,1.487-1.5" transform="translate(-61.479 -52.991)" fill="#fff"/>
    <path id="Path_54" data-name="Path 54" d="M48.118,60.218a1.948,1.948,0,0,0-1.116-1V57.982a1.62,1.62,0,0,0,.841-1.382,1.975,1.975,0,0,0-3.906,0,1.62,1.62,0,0,0,.841,1.382v1.232a2.031,2.031,0,0,0-1.095,1c-1.8.315-3.091,1-3.166,1.8.1,1.1,2.544,1.983,5.372,1.983s5.27-.885,5.373-1.983c-.074-.792-1.368-1.472-3.145-1.79" transform="translate(-28.344 -37.417)" fill="#fff"/>
  </g>
</svg>
