<svg xmlns="http://www.w3.org/2000/svg" width="36" height="36.239" viewBox="0 0 36 36.239">
  <g id="Omni1" transform="translate(4 1)">
    <g id="Group_22" data-name="Group 22" transform="translate(0.688 -1)">
      <path id="Path_28" data-name="Path 28" d="M95.273,36.167a1.93,1.93,0,0,1-1.656,1.046,2.264,2.264,0,0,1-2.265-2.356,2.211,2.211,0,0,1,2.174-2.367,1.842,1.842,0,0,1,1.737,1.1l.03.061h2.387l-.051-.163a4.286,4.286,0,0,0-4.1-2.986,4.356,4.356,0,0,0-3.006,1.229,4.309,4.309,0,0,0-1.32,3.108,4.38,4.38,0,0,0,4.347,4.388A4.223,4.223,0,0,0,97.63,36.3l.061-.173H95.3Z" transform="translate(-79.878 -27.488)" fill="#fff"/>
      <path id="Path_31" data-name="Path 31" d="M8.251,13.887c-.425-.963-.849-1.864-1.222-2.786a11.035,11.035,0,0,1-.57-1.8,7.164,7.164,0,0,1,5.272-8.2,7.273,7.273,0,0,1,9.115,6.992,9.374,9.374,0,0,1-.932,3.574c-.311.735-.663,1.45-1.015,2.227H8.251Zm5.314-11.8A5.948,5.948,0,0,0,7.9,9.9a41.621,41.621,0,0,0,4.426,8.432,2.243,2.243,0,0,0,2.5,0,51.909,51.909,0,0,0,3.961-7.22A7.842,7.842,0,0,0,19.6,8.066a6.032,6.032,0,0,0-6.039-5.977M16.35,18.331c-.735,1.1-5.105.5-5.437,0l-.87-1.347-1.792-3.1H18.9Z" transform="translate(-0.007 -0.851)" fill="#fff"/>
    </g>
    <g id="Group_21" data-name="Group 21" transform="translate(1 -2)">
      <path id="Path_58" data-name="Path 58" d="M14.82,59.482h1.536v-.974h2.1a1.972,1.972,0,0,0-.2.179L18,58.91l-.387.37a5.967,5.967,0,0,0-1.949,4.492v.179h2.167a4.528,4.528,0,0,1-.029-.487,6.448,6.448,0,0,1,1.806-4.957V56.64H14.82Z" transform="translate(-15.241 -32.899)" fill="#fff"/>
      <path id="Path_59" data-name="Path 59" d="M90,59.482h1.533v-.974h2.1a1.763,1.763,0,0,0-.208.179l-.244.224-.383.37a5.957,5.957,0,0,0-1.949,4.492v.179h2.163c-.016-.179-.026-.341-.026-.487a6.448,6.448,0,0,1,1.806-4.957V56.64H90Z" transform="translate(-68.247 -32.899)" fill="#fff"/>
      <path id="Path_60" data-name="Path 60" d="M49,55.789h2.215V54.4h3.014a3.655,3.655,0,0,0-.3.253l-.348.325-.559.533a8.611,8.611,0,0,0-2.806,6.477v.253h3.118q-.05-.346-.065-.7,0-4.716,2.6-7.146V51.7H49Z" transform="translate(-39.441 -29.624)" fill="#fff"/>
      <path id="Path_61" data-name="Path 61" d="M36.061,38.3a.911.911,0,0,0-.917-.725H25.5c-.067-.342-.113-.55-.125-.594a.912.912,0,0,0-.893-.692H12.891a.912.912,0,0,0-.893.683c0,.033-.058.244-.128.594H2.282a.911.911,0,0,0-.9.725,42.8,42.8,0,0,0,0,14.854.911.911,0,0,0,.9.722h9.6c.034.19.067.38.107.57a.911.911,0,0,0,.9.719H24.482a.91.91,0,0,0,.9-.734c.034-.187.064-.368.1-.556h9.677a.911.911,0,0,0,.917-.722A43.081,43.081,0,0,0,36.061,38.3ZM3.049,52.08a43.288,43.288,0,0,1,0-12.721h8.518a45.671,45.671,0,0,0,.021,12.721Zm20.659,1.289H13.65a43.151,43.151,0,0,1-.685-7.882,41.6,41.6,0,0,1,.673-7.427h10.1A46.493,46.493,0,0,1,23.709,53.369ZM34.391,52.08H25.754a48.28,48.28,0,0,0,.034-12.721h8.591A42.1,42.1,0,0,1,34.391,52.08Z" transform="translate(-5.724 -17.919)" fill="#fff"/>
    </g>
  </g>
</svg>
