<svg id="Iconos-app-codere-Expand_icon-sub-slots" xmlns="http://www.w3.org/2000/svg" width="36" height="28.239" viewBox="0 0 36 28.239">
  <path id="Path_14" data-name="Path 14" d="M14.82,59.482h1.536v-.974h2.1a1.972,1.972,0,0,0-.2.179L18,58.91l-.387.37a5.967,5.967,0,0,0-1.949,4.492v.179h2.167a4.528,4.528,0,0,1-.029-.487,6.448,6.448,0,0,1,1.806-4.957V56.64H14.82Z" transform="translate(-10.241 -41.899)" fill="#fff"/>
  <path id="Path_15" data-name="Path 15" d="M90,59.482h1.533v-.974h2.1a1.763,1.763,0,0,0-.208.179l-.244.224-.383.37a5.957,5.957,0,0,0-1.949,4.492v.179h2.163c-.016-.179-.026-.341-.026-.487a6.448,6.448,0,0,1,1.806-4.957V56.64H90Z" transform="translate(-63.247 -41.899)" fill="#fff"/>
  <path id="Path_16" data-name="Path 16" d="M49,55.789h2.215V54.4h3.014a3.655,3.655,0,0,0-.3.253l-.348.325-.559.533a8.611,8.611,0,0,0-2.806,6.477v.253h3.118q-.05-.346-.065-.7,0-4.716,2.6-7.146V51.7H49Z" transform="translate(-34.441 -38.624)" fill="#fff"/>
  <path id="Path_17" data-name="Path 17" d="M36.061,38.3a.911.911,0,0,0-.917-.725H25.5c-.067-.342-.113-.55-.125-.594a.912.912,0,0,0-.893-.692H12.891a.912.912,0,0,0-.893.683c0,.033-.058.244-.128.594H2.282a.911.911,0,0,0-.9.725,42.8,42.8,0,0,0,0,14.854.911.911,0,0,0,.9.722h9.6c.034.19.067.38.107.57a.911.911,0,0,0,.9.719H24.482a.91.91,0,0,0,.9-.734c.034-.187.064-.368.1-.556h9.677a.911.911,0,0,0,.917-.722A43.081,43.081,0,0,0,36.061,38.3ZM3.049,52.08a43.288,43.288,0,0,1,0-12.721h8.518a45.671,45.671,0,0,0,.021,12.721Zm20.659,1.289H13.65a43.151,43.151,0,0,1-.685-7.882,41.6,41.6,0,0,1,.673-7.427h10.1A46.493,46.493,0,0,1,23.709,53.369ZM34.391,52.08H25.754a48.28,48.28,0,0,0,.034-12.721h8.591A42.1,42.1,0,0,1,34.391,52.08Z" transform="translate(-0.724 -26.919)" fill="#fff"/>
  <path id="Path_18" data-name="Path 18" d="M16.122,26.054a.231.231,0,0,1,.062.2l-.2,1.176a.221.221,0,0,0,.325.231l1.056-.549a.247.247,0,0,1,.214,0l1.056.549a.218.218,0,0,0,.325-.231l-.2-1.176a.231.231,0,0,1,.062-.2l.858-.825a.234.234,0,0,0-.14-.383l-1.176-.169a.247.247,0,0,1-.169-.12l-.52-1.072a.218.218,0,0,0-.4,0l-.5,1.072a.247.247,0,0,1-.169.12l-1.192.169a.224.224,0,0,0-.123.383Z" transform="translate(-10.51 -18.542)" fill="#fff"/>
  <path id="Path_19" data-name="Path 19" d="M91.322,26.054a.231.231,0,0,1,.062.2l-.2,1.176a.221.221,0,0,0,.325.231l1.043-.549a.247.247,0,0,1,.214,0l1.056.549a.218.218,0,0,0,.325-.231l-.2-1.176a.231.231,0,0,1,.062-.2l.858-.825a.234.234,0,0,0-.14-.383l-1.176-.169a.247.247,0,0,1-.169-.12l-.5-1.072a.218.218,0,0,0-.4,0l-.52,1.072a.247.247,0,0,1-.169.12l-1.189.169a.224.224,0,0,0-.123.383Z" transform="translate(-63.523 -18.542)" fill="#fff"/>
  <path id="Path_20" data-name="Path 20" d="M48.459,12.344a.416.416,0,0,1,.114.361L48.2,14.845a.4.4,0,0,0,.585.419l1.92-1a.448.448,0,0,1,.387,0l1.916,1a.4.4,0,0,0,.585-.419L53.227,12.7a.416.416,0,0,1,.1-.361l1.556-1.5a.422.422,0,0,0-.25-.7L52.5,9.843a.426.426,0,0,1-.305-.224L51.246,7.67a.4.4,0,0,0-.724,0l-.945,1.949a.426.426,0,0,1-.305.224l-2.167.305a.406.406,0,0,0-.224.7Z" transform="translate(-32.922 -7.439)" fill="#fff"/>
</svg>
