<?xml version="1.0" encoding="utf-8"?>
<!-- Generator: Adobe Illustrator 26.3.1, SVG Export Plug-In . SVG Version: 6.00 Build 0)  -->
<svg version="1.1" id="Capa_1" xmlns="http://www.w3.org/2000/svg" x="0px"
     y="0px"
     viewBox="0 0 480 480" style="enable-background:new 0 0 480 480;" xml:space="preserve" fill="#fff">

<g>
	<g>
		<path d="M142.2,131l-64-80c-3-3.8-9.5-3.8-12.5,0l-64,80c-1.9,2.4-2.3,5.7-1,8.5c1.3,2.8,4.1,4.5,7.2,4.5h24v88
			c0,4.4,3.6,8,8,8h64c4.4,0,8-3.6,8-8v-88h24c3.1,0,5.9-1.8,7.2-4.5C144.5,136.7,144.2,133.4,142.2,131z M104,128c-4.4,0-8,3.6-8,8
			v88H48v-88c0-4.4-3.6-8-8-8H24.6L72,68.8l47.4,59.2H104z" fill="#fff"/>
	</g>
</g>
    <g>
	<g>
		<path d="M104,384H40c-4.4,0-8,3.6-8,8v32c0,4.4,3.6,8,8,8h64c4.4,0,8-3.6,8-8v-32C112,387.6,108.4,384,104,384z
			 M96,416H48v-16h48V416z" fill="#fff"/>
	</g>
</g>
    <g>
	<g>
		<path d="M104,320H40c-4.4,0-8,3.6-8,8v32c0,4.4,3.6,8,8,8h64c4.4,0,8-3.6,8-8v-32C112,323.6,108.4,320,104,320z
			 M96,352H48v-16h48V352z" fill="#fff"/>
	</g>
</g>
    <g>
	<g>
		<path d="M104,256H40c-4.4,0-8,3.6-8,8v32c0,4.4,3.6,8,8,8h64c4.4,0,8-3.6,8-8v-32C112,259.6,108.4,256,104,256z
			 M96,288H48v-16h48V288z" fill="#fff"/>
	</g>
</g>
    <g>
	<g>
		<path d="M468.3,273L408,212.7V112c30.9,0,56-25.1,56-56S438.9,0,408,0H200c-30.9,0-56,25.1-56,56s25.1,56,56,56v168
			c0,13.2,10.8,24,24,24h92.7l9.6,9.6c-4.8,10.5-9.8,27.5-6.2,47.8c5.7,31.4,28.6,48.7,35.5,53.3l8.8-13.4
			c-5.5-3.7-24-17.6-28.5-42.7c-3.5-19.4,3-35.1,7.1-42.7c1.7-3.1,1.2-7-1.4-9.5l-16-16l-39.6-39.6c-6.5-6.5-7-16.7-1.3-23.9
			c3.2-3.9,7.7-6.3,12.7-6.7c5-0.4,9.8,1.3,13.5,4.8l99.5,92.9l10.9-11.7L405.2,291c1.8-3.4,2.8-7.1,2.8-11v-44.7l49,49
			c4.5,4.5,7,10.7,7,17V480h16V301.3C480,290.6,475.8,280.5,468.3,273z M392,104v174.7l-70.1-65.4c-6.9-6.4-16.3-9.7-25.6-9
			c-9.4,0.7-18.2,5.3-24.1,12.7c-5.4,6.8-7.8,15-7.4,23.1c0.4,8.1,3.8,16,9.9,22.1l25.9,25.9H224c-4.4,0-8-3.6-8-8V104V64h176V104z
			 M400,48H208c-4.4,0-8,3.6-8,8v40c-22.1,0-40-17.9-40-40s17.9-40,40-40h208c22.1,0,40,17.9,40,40s-17.9,40-40,40V56
			C408,51.6,404.4,48,400,48z" fill="#fff"/>
	</g>
</g>
    <g>
	<g>
		<path d="M310.8,419.7c-10.7-16.8-13.9-33.4-14.8-44.3l-16,1.2c1,12.8,4.8,32.1,17.2,51.7
			c8.7,13.8,20.6,25.7,34.4,34.5l8.6-13.5C328.5,441.7,318.2,431.5,310.8,419.7z" fill="#fff"/>
	</g>
</g>
    <g>
	<g>
		<path d="M344,80h-16c-13.2,0-24,10.8-24,24v32c0,13.2,10.8,24,24,24h16c13.2,0,24-10.8,24-24v-32
			C368,90.8,357.2,80,344,80z M352,136c0,4.4-3.6,8-8,8h-16c-4.4,0-8-3.6-8-8v-32c0-4.4,3.6-8,8-8h16c4.4,0,8,3.6,8,8V136z"
              fill="#fff"/>
	</g>
</g>
    <g>
	<g>
		<rect x="240" y="80" class="st0" width="16" height="40"/>
	</g>
</g>
    <g>
	<g>
		<rect x="240" y="152" class="st0" width="16" height="40"/>
	</g>
</g>
    <g>
	<g>
		<rect x="240" y="224" class="st0" width="16" height="48"/>
	</g>
</g>
</svg>
